<?xml version="1.0" encoding="utf-8"?>
<!-- Generator: Adobe Illustrator 27.3.1, SVG Export Plug-In . SVG Version: 6.00 Build 0)  -->
<svg version="1.1" id="Layer_1" xmlns="http://www.w3.org/2000/svg" xmlns:xlink="http://www.w3.org/1999/xlink" x="0px" y="0px"
	 viewBox="0 0 496.8 605.6" style="enable-background:new 0 0 496.8 605.6;" xml:space="preserve">
<style type="text/css">
	.st0{fill-rule:evenodd;clip-rule:evenodd;fill:#F29118;}
	.st1{fill-rule:evenodd;clip-rule:evenodd;fill:#2B2A29;}
	.st2{fill:#F29118;}
	.st3{fill:#606060;}
</style>
<g id="Слой_2">
	<g id="Слой_1-2">
		<path class="st0" d="M241.3,445.4c0,0-39.1-27.6-79.1-68.6C51.8,263.4,66.7,85.8,66.7,85.8l176-71.3l176,71.3
			c0,0,14.9,177.5-95.5,290.9c-40,41.1-79.1,68.6-79.1,68.6H241.3z"/>
		<path class="st1" d="M241.4,415.2c-24.9-17.6-48.3-37.3-69.9-58.8c-97.6-97.1-84.4-249.2-84.4-249.2l155.6-61.1l155.6,61.1
			c0,0,13.2,152.1-84.4,249.2c-21.7,21.5-45,41.1-69.9,58.8H241.4z"/>
		<path class="st2" d="M347.3,306c0.3-18.3-17-40-17-40l4.7-12.7l4-12.4c2.7,21.8,7.9,23.1,10.8,36C353.4,293.9,347.3,306,347.3,306
			L347.3,306z M338,326.1l-29.8-19.2c0,0,19.4-2,21.2-2.8c6.3-2.8,3.1-18,3.1-18C346.5,303.3,338,326.1,338,326.1L338,326.1z
			 M301.4,275.8c-6.5-10.3-20.9-14.2-20.9-14.2s14.8-2.8,27.6,7.2l15.9,29.6l-23.9,1.7C312,289.9,301.4,275.8,301.4,275.8z
			 M235.5,239c0,0,12.1,6.5,29.3,3.3l17.9-3.3c0,0,17.2,7.5,23.1,22.2c-3.8-3.8-12.5-7.5-25.3-4.8
			C260.6,260.4,238.3,248.1,235.5,239L235.5,239z M234.5,324.5L222,289.9l24.7-6.4l27,21.5L234.5,324.5L234.5,324.5z M211.9,262.9
			l10.6-8.5l19.8,23.7l-24.1,6.2L211.9,262.9L211.9,262.9z M205.5,239l10.4-6.1l4.1,15.7l-11.1,7.6L205.5,239z M195,209.8l15.7-23.1
			l5.2,10l4.1,13.3l-6.4,3.6l1.3,13l-15.8,9L195,209.8z M178.4,194.9l-23.7,3.3l13.7-20.3c-4.8,1.7-8.2,2.1-14,3.1l-35.1,5.8
			c17.4-11.2,30.2-20.3,48.8-29.4c4.8-2.3,14.3-5.5,19.4-4.1l24.1,7l-23.8,8.3l2.1,10L178.4,194.9L178.4,194.9z M174.8,240.5
			l-27.3,13.3l-36.8,8.2l40.8-54.8l26.9-4.2L174.8,240.5L174.8,240.5z M174.8,291.2l-43.7,13.6l-6.5-13.3l6.5-7.3l22-23.8l21.7-9.6
			L174.8,291.2L174.8,291.2z M229.1,121.9c6.9,5.6,16.4,9.1,20.6,16.9l8.9,16.3l-14.9-3l-16-13.3c-5.6-4.6-13-7.4-20.2-8.3l-57-7
			C175.7,122.2,218,112.8,229.1,121.9L229.1,121.9z M238.7,184.7l0.6-9.3l29.3,9.5l9.9,19.4c-3.3,1.4-7.1,1.4-10.4,0
			c-1.6-3.6-3.2-7.1-4.7-10.7L238.7,184.7L238.7,184.7z M191.8,146.5c5.4-1.8,10.5-5,16.1-5.4c5.6-0.4,12.5-0.6,17,3l11.4,9.2
			l-14.1,2.8L191.8,146.5z M223.1,178.6l12.3,9.8l12.8,5.2l-12.7,3.4l-11,10.2l-4.3-14.1L223.1,178.6L223.1,178.6z M274.3,234.9
			c0,0-31.1,6.7-38.9-8c0,0,10.6,3.4,19.1,1.7c0,0-10.9-13.5-9.8-28.9c0,0,20.3,14.5,35.1,9.1c0,0-10.3,10.2-20.3,10.6
			C259.5,219.4,262.2,229.5,274.3,234.9z M264.6,88.4c10,11.1,14.1,26.5,19.8,40.3c3.9,9.3,8.9,18.8,8.9,28.9v17
			c0,0-8.8-10.2-26.9-17.3l-7.8-16.3c0,0,9.9,2.9,11.2,2.9c-3.7-14.9-3.3-31.6-11.2-44.9c-10.7-18.1-28.5-31-42.8-46.4
			C232.1,64.6,251.1,73.5,264.6,88.4L264.6,88.4z M309.8,227.9v13c0,0-7.9-9.5-10.2-18s-0.2-9.3,0-19.8c0,0,2.3,8.1,5.9,13.3
			C310.1,223.1,309.8,227.9,309.8,227.9L309.8,227.9z M319.1,128.5l5.7,41.8l8.3,9.4c0,0-11.6,12.3-14.2,19.8c0,0-3-12.7-5-14.8
			c-4.8-5-15.4-7.8-15.4-7.8l0.7-19.2l5,3.2c0-11.8,3.8-24.3,0-35.4l-16.4-47.6C287.9,77.9,317.9,119.4,319.1,128.5L319.1,128.5z
			 M345.9,177.6c0,0.1-0.1,0.1-0.1,0.2c-1.2,2.3-11.3,24.9-10.3,40.3c1,15.4-7.4,35.3-7.4,35.3s-13.5-26.3-6.3-43.5
			c6.9-16.5,22.5-30.2,24-32.1C345.8,177.6,345.9,177.5,345.9,177.6L345.9,177.6z M242.8,46.1c-87.8,0-159.2,71.4-159.2,159.2
			c0,45,19.1,88,52.5,118.1l16.5-11.2l2-5.3l2.9-0.9l17.3-5.3l-9.8,57.2c20,10.8,37.4,47.7,61.4,49.1l10.8-74.2l43.2-23.1
			c0.4,0.3,35,25.6,46.8,34.3c46.4-27.8,74.7-80.7,74.7-138.6C402,117.6,330.6,46.2,242.8,46.1L242.8,46.1z"/>
	</g>
</g>
<g id="Слой_2_00000003808681331176373160000000373235183176068275_">
	<g id="Слой_1-2_00000021110868181987666070000004202521465916187545_">
		<path class="st3" d="M132.3,537.7v-21.2H26v21.2H132.3z M142.9,495.2c2.8,0,5.6,1.1,7.6,3.1c2,2,3.2,4.7,3.1,7.5v42.5
			c0,5.9-4.8,10.6-10.7,10.6c0,0,0,0,0,0h-31.9v21.2h31.9c5.9,0,10.7,4.8,10.7,10.7s-4.8,10.7-10.7,10.7c0,0,0,0,0,0h-42.5
			c-5.9,0-10.6-4.8-10.6-10.6v-32H26v32c0.1,2.8-1.1,5.5-3.1,7.5c-2,2-4.7,3.2-7.5,3.1c-2.8,0-5.6-1.1-7.5-3.1c-2-2-3.2-4.7-3.1-7.5
			v-85.1c0-2.8,1.1-5.5,3.1-7.5c2-2,4.7-3.2,7.5-3.1H142.9z M266.1,580.2l31.9-31.9l-31.9-31.9h-70v63.8H266.1z M320.5,540.8
			c2,2,3.2,4.7,3.2,7.5c0,2.8-1.1,5.5-3.2,7.5L278,598.3c-1.9,2.1-4.7,3.2-7.5,3.2h-85c-2,0-3.9-0.5-5.5-1.6
			c-3.4-2.2-5.1-5.2-5.1-9.1v-85c0-2.8,1.1-5.5,3.1-7.5c2-2,4.7-3.2,7.5-3.1h85c2.8,0,5.6,1.1,7.6,3.2L320.5,540.8z M493.7,548.3
			v42.5c0,5.9-4.8,10.6-10.6,10.6H376.8c-2.8,0-5.5-1.1-7.5-3.2l-21.2-21.2c-2.1-1.9-3.2-4.6-3.2-7.4v-42.5c0-2.8,1.1-5.6,3.2-7.5
			l21.2-21.3c2-2,4.7-3.1,7.5-3.1h106.3c2.8,0,5.5,1.1,7.5,3.1c2,2,3.2,4.7,3.1,7.5c0,2.8-1.1,5.5-3.1,7.5c-2,2-4.7,3.2-7.5,3.1
			H381.2l-15.1,15v33.7l15.1,15.1h91.2v-21.3h-53.2c-5.9,0-10.6-4.8-10.6-10.6c0-5.9,4.7-10.6,10.6-10.6h63.8
			C489,537.7,493.7,542.5,493.7,548.3z"/>
	</g>
</g>
</svg>
