<svg xmlns="http://www.w3.org/2000/svg" viewBox="0 0 496.8 605.6"><defs><style>.cls-1,.cls-3{fill:#f29118;}.cls-1,.cls-2{fill-rule:evenodd;}.cls-2{fill:#2b2a29;}</style></defs><g id="Слой_2" data-name="Слой 2"><g id="Слой_1-2" data-name="Слой 1"><path class="cls-1" d="M246.3,605.6s-54.93-38.74-111.15-96.46C-20,349.75,1,100.21,1,100.21L248.41,0,495.85,100.21s21,249.54-134.19,408.93C305.43,566.86,250.5,605.6,250.5,605.6Z"/><path class="cls-2" d="M246.54,563.09a781.92,781.92,0,0,1-98.25-82.62C11.12,344,29.66,130.22,29.66,130.22L248.41,44.39l218.72,85.83S485.68,344,348.51,480.47a782.39,782.39,0,0,1-98.26,82.62Z"/><path class="cls-3" d="M395.39,409.66c.46-25.68-23.92-56.24-23.92-56.24l6.58-17.85,5.57-17.37c3.75,30.71,11.16,32.46,15.11,50.65,5.18,23.83-3.34,40.81-3.34,40.81Zm-13.12,28.19L340.34,410.8s27.22-2.87,29.8-4c8.82-4,4.35-25.31,4.35-25.31,19.76,24.41,7.78,56.39,7.78,56.39Zm-51.52-70.67c-9.17-14.45-29.34-19.95-29.34-19.95s20.78-4,38.81,10.09l22.32,41.57-33.63,2.44c16.81-14.29,1.84-34.15,1.84-34.15Zm-92.61-51.74s17,9.17,41.15,4.59l25.16-4.59s24.24,10.49,32.49,31.27c-5.33-5.38-17.5-10.48-35.53-6.81-28,5.69-59.3-11.62-63.27-24.45Zm-1.29,120.25L219.19,387l34.65-8.94,37.92,30.21-54.91,27.38ZM205,349.07l14.95-12,27.78,33.26L213.84,379l-8.87-30ZM196,315.44l14.6-8.55,5.72,22-15.57,10.71L196,315.44Zm-14.74-40.95,22-32.4,7.34,14.06,5.72,18.73-8.94,5.1,1.88,18.27-22.17,12.68-5.83-36.44Zm-23.38-20.94-33.32,4.58,19.3-28.57c-6.77,2.44-11.54,3-19.69,4.33l-49.28,8.2c24.45-15.69,42.48-28.56,68.56-41.37,6.72-3.3,20.07-7.77,27.26-5.7l33.93,9.78-33.48,11.61,3,14.06-16.24,23.08Zm-5,64-38.35,18.72L62.77,347.84l57.31-77L157.91,265l-5,52.49Zm0,71.29L91.5,407.9l-9.18-18.67L91.5,379l30.92-33.44,30.5-13.53V388.8Zm76.28-238c9.65,7.92,23,12.81,29,23.75l12.54,22.85-21-4.21-22.54-18.64c-7.88-6.52-18.24-10.38-28.39-11.62l-80.12-9.78c35.43-1.93,95-15.06,110.5-2.35Zm13.59,88.32.84-13.07,41.13,13.32,13.88,27.26a18.43,18.43,0,0,1-14.67,0q-3.32-7.53-6.65-15.06L242.8,239.11Zm-66-53.72c7.54-2.54,14.69-7,22.63-7.62s17.63-.85,23.91,4.26l16,13-19.87,4Zm44,45.08,17.26,13.76L256,251.64l-17.88,4.81L222.7,270.82l-6-19.87,4.13-20.48Zm72,79.17s-43.7,9.47-54.71-11.31c0,0,14.9,4.73,26.9,2.44,0,0-15.28-18.95-13.75-40.65,0,0,28.5,20.33,49.28,12.84,0,0-14.43,14.28-28.5,14.94,0,0,3.78,14.21,20.78,21.74ZM279.05,103.81c14.08,15.64,19.79,37.23,27.85,56.67,5.44,13.1,12.54,26.47,12.54,40.65V225s-12.38-14.36-37.8-24.3l-10.92-22.9s13.87,4.11,15.71,4.11c-5.24-21-4.69-44.43-15.71-63.09-15-25.47-40.06-43.52-60.09-65.28,22.81,16.76,49.49,29.26,68.42,50.3Zm63.62,196.05V318.2s-11.09-13.35-14.37-25.37-.3-13.14,0-27.82c0,0,3.26,11.38,8.25,18.65,6.52,9.47,6.12,16.2,6.12,16.2Zm13.08-139.68L363.81,219l11.71,13.21s-16.27,17.27-20,27.89c0,0-4.24-17.9-7-20.78-6.79-7-21.7-11-21.7-11l1-27.05,7,4.43c0-16.61,5.38-34.11,0-49.82L311.79,89s42.19,58.34,44,71.22Zm37.56,68.94a.9.9,0,0,1-.17.26c-1.72,3.29-15.91,35-14.49,56.58s-10.45,49.61-10.45,49.61-18.95-36.94-8.86-61.08C369,251.35,391,232,393.14,229.38c.12-.24.19-.35.17-.26ZM248.4,44.39C125,44.39,24.66,144.76,24.66,268.13a223.23,223.23,0,0,0,73.83,166l23.2-15.72,2.79-7.42,4.14-1.29,24.31-7.48-13.74,80.37c28.12,15.24,52.6,67.06,86.29,69l15.18-104.26,60.74-32.41c.5.49,49.19,36,65.77,48.15,65.23-39.14,105-113.4,105-194.85,0-123.38-100.37-223.75-223.75-223.75Z"/></g></g></svg>