<svg xmlns="http://www.w3.org/2000/svg" viewBox="0 0 673.25 146.43"><defs><style>.cls-1{fill:#606060;}</style></defs><g id="Слой_2" data-name="Слой 2"><g id="Слой_1-2" data-name="Слой 1"><path class="cls-1" d="M175.55,58.59V29.36H29.22V58.59ZM190.18,0a14.25,14.25,0,0,1,10.43,4.3,14.12,14.12,0,0,1,4.3,10.33V73.21a14.68,14.68,0,0,1-14.73,14.63H146.32v29.23h43.86a14.68,14.68,0,1,1,0,29.36H131.69a14.7,14.7,0,0,1-14.63-14.63v-44H29.22v44A14.06,14.06,0,0,1,25,142.13a14,14,0,0,1-10.32,4.3,14.09,14.09,0,0,1-10.36-4.3A14.06,14.06,0,0,1,0,131.8V14.63A14.06,14.06,0,0,1,4.27,4.3,14.13,14.13,0,0,1,14.63,0ZM359.81,117.07l43.88-43.86L359.81,29.26H263.39v87.81Zm74.93-54.25a14.2,14.2,0,0,1,4.34,10.39,13.89,13.89,0,0,1-4.34,10.3l-58.59,58.58a13.86,13.86,0,0,1-10.29,4.34H248.8a13.35,13.35,0,0,1-7.58-2.24q-7.07-4.49-7.05-12.49V14.63A14.09,14.09,0,0,1,238.43,4.3,14.14,14.14,0,0,1,248.79,0H365.86a14.21,14.21,0,0,1,10.4,4.34l58.48,58.48ZM673.25,73.21V131.8a14.7,14.7,0,0,1-14.63,14.63H512.19a13.86,13.86,0,0,1-10.29-4.34l-29.23-29.26a13.78,13.78,0,0,1-4.34-10.25V44a14.12,14.12,0,0,1,4.34-10.36L501.9,4.34A14,14,0,0,1,512.19.1H658.62a14.07,14.07,0,0,1,10.32,4.27,14.18,14.18,0,0,1,4.31,10.36,14.09,14.09,0,0,1-4.31,10.33,14.06,14.06,0,0,1-10.32,4.3H518.35L497.56,50v46.4l20.79,20.76H644V87.84H570.77a14.63,14.63,0,0,1-14.59-14.63,14.63,14.63,0,0,1,14.59-14.63h87.85a14.7,14.7,0,0,1,14.63,14.63Z"/></g></g></svg>